<?xml version="1.0" encoding="UTF-8" standalone="no"?>
<!DOCTYPE svg PUBLIC "-//W3C//DTD SVG 1.1//EN"
 "http://www.w3.org/Graphics/SVG/1.1/DTD/svg11.dtd">
<!-- Generated by graphviz version 8.0.5 (0)
 -->
<!-- Pages: 1 -->
<svg width="687pt" height="476pt"
 viewBox="0.00 0.00 687.43 476.00" xmlns="http://www.w3.org/2000/svg" xmlns:xlink="http://www.w3.org/1999/xlink">
<g id="graph0" class="graph" transform="scale(1 1) rotate(0) translate(4 472)">
<polygon fill="white" stroke="none" points="-4,4 -4,-472 683.43,-472 683.43,4 -4,4"/>
<!-- quipper -->
<g id="node1" class="node">
<title>quipper</title>
<ellipse fill="none" stroke="black" cx="349.5" cy="-378" rx="50.16" ry="18"/>
<text text-anchor="middle" x="349.5" y="-373.32" font-family="Times,serif" font-size="14.00">quipper</text>
</g>
<!-- quipper&#45;language -->
<g id="node2" class="node">
<title>quipper&#45;language</title>
<ellipse fill="none" stroke="black" cx="388.5" cy="-90" rx="99.08" ry="18"/>
<text text-anchor="middle" x="388.5" y="-85.33" font-family="Times,serif" font-size="14.00">quipper&#45;language</text>
</g>
<!-- quipper&#45;&gt;quipper&#45;language -->
<g id="edge1" class="edge">
<title>quipper&#45;&gt;quipper&#45;language</title>
<path fill="none" stroke="black" d="M313.87,-365.11C295,-356.78 273.5,-343.58 262.5,-324 254.67,-310.05 259.65,-303.74 262.5,-288 274.7,-220.74 275.27,-198.52 316.5,-144 325.45,-132.16 337.77,-121.77 349.68,-113.4"/>
<polygon fill="black" stroke="black" points="351.28,-115.87 357.64,-107.4 347.39,-110.05 351.28,-115.87"/>
</g>
<!-- quipper&#45;libraries -->
<g id="node3" class="node">
<title>quipper&#45;libraries</title>
<ellipse fill="none" stroke="black" cx="470.5" cy="-234" rx="95.4" ry="18"/>
<text text-anchor="middle" x="470.5" y="-229.32" font-family="Times,serif" font-size="14.00">quipper&#45;libraries</text>
</g>
<!-- quipper&#45;&gt;quipper&#45;libraries -->
<g id="edge2" class="edge">
<title>quipper&#45;&gt;quipper&#45;libraries</title>
<path fill="none" stroke="black" d="M381.71,-363.76C399.93,-354.85 421.9,-341.53 436.5,-324 451.12,-306.44 459.86,-281.92 464.81,-263.07"/>
<polygon fill="black" stroke="black" points="468.43,-263.98 467.36,-253.44 461.62,-262.35 468.43,-263.98"/>
</g>
<!-- quipper&#45;tools -->
<g id="node4" class="node">
<title>quipper&#45;tools</title>
<ellipse fill="none" stroke="black" cx="349.5" cy="-306" rx="77.51" ry="18"/>
<text text-anchor="middle" x="349.5" y="-301.32" font-family="Times,serif" font-size="14.00">quipper&#45;tools</text>
</g>
<!-- quipper&#45;&gt;quipper&#45;tools -->
<g id="edge3" class="edge">
<title>quipper&#45;&gt;quipper&#45;tools</title>
<path fill="none" stroke="black" d="M349.5,-359.7C349.5,-352.24 349.5,-343.32 349.5,-334.97"/>
<polygon fill="black" stroke="black" points="353,-335.1 349.5,-325.1 346,-335.1 353,-335.1"/>
</g>
<!-- quipper&#45;utils -->
<g id="node6" class="node">
<title>quipper&#45;utils</title>
<ellipse fill="none" stroke="black" cx="388.5" cy="-18" rx="75.41" ry="18"/>
<text text-anchor="middle" x="388.5" y="-13.32" font-family="Times,serif" font-size="14.00">quipper&#45;utils</text>
</g>
<!-- quipper&#45;language&#45;&gt;quipper&#45;utils -->
<g id="edge16" class="edge">
<title>quipper&#45;language&#45;&gt;quipper&#45;utils</title>
<path fill="none" stroke="black" d="M388.5,-71.7C388.5,-64.24 388.5,-55.32 388.5,-46.97"/>
<polygon fill="black" stroke="black" points="392,-47.1 388.5,-37.1 385,-47.1 392,-47.1"/>
</g>
<!-- quipper&#45;libraries&#45;&gt;quipper&#45;language -->
<g id="edge17" class="edge">
<title>quipper&#45;libraries&#45;&gt;quipper&#45;language</title>
<path fill="none" stroke="black" d="M486.58,-216.01C502.17,-197.39 521.44,-167.09 506.5,-144 495.9,-127.61 478.9,-116.25 461.06,-108.38"/>
<polygon fill="black" stroke="black" points="462.68,-104.85 452.1,-104.35 460.06,-111.34 462.68,-104.85"/>
</g>
<!-- quipper&#45;libraries&#45;&gt;quipper&#45;utils -->
<g id="edge18" class="edge">
<title>quipper&#45;libraries&#45;&gt;quipper&#45;utils</title>
<path fill="none" stroke="black" d="M493.98,-216.14C504.86,-206.86 516.65,-194.32 522.5,-180 541.18,-134.3 529.45,-108.77 496.5,-72 482.56,-56.44 463.03,-44.95 444.4,-36.72"/>
<polygon fill="black" stroke="black" points="446.06,-33.2 435.48,-32.6 443.37,-39.67 446.06,-33.2"/>
</g>
<!-- quipper&#45;cabal -->
<g id="node7" class="node">
<title>quipper&#45;cabal</title>
<ellipse fill="none" stroke="black" cx="417.5" cy="-162" rx="79.62" ry="18"/>
<text text-anchor="middle" x="417.5" y="-157.32" font-family="Times,serif" font-size="14.00">quipper&#45;cabal</text>
</g>
<!-- quipper&#45;libraries&#45;&gt;quipper&#45;cabal -->
<g id="edge19" class="edge">
<title>quipper&#45;libraries&#45;&gt;quipper&#45;cabal</title>
<path fill="none" stroke="black" d="M457.4,-215.7C451.24,-207.56 443.77,-197.69 436.96,-188.7"/>
<polygon fill="black" stroke="black" points="439.28,-186.96 430.45,-181.1 433.7,-191.19 439.28,-186.96"/>
</g>
<!-- quipper&#45;tools&#45;&gt;quipper&#45;language -->
<g id="edge20" class="edge">
<title>quipper&#45;tools&#45;&gt;quipper&#45;language</title>
<path fill="none" stroke="black" d="M341.44,-287.67C328.48,-257.18 306.6,-192.57 328.5,-144 333.72,-132.44 342.84,-122.38 352.42,-114.23"/>
<polygon fill="black" stroke="black" points="354.19,-116.51 359.87,-107.57 349.85,-111.01 354.19,-116.51"/>
</g>
<!-- quipper&#45;tools&#45;&gt;quipper&#45;libraries -->
<g id="edge21" class="edge">
<title>quipper&#45;tools&#45;&gt;quipper&#45;libraries</title>
<path fill="none" stroke="black" d="M377.57,-288.76C393.82,-279.36 414.52,-267.39 432.25,-257.13"/>
<polygon fill="black" stroke="black" points="433.85,-259.67 440.75,-251.63 430.34,-253.61 433.85,-259.67"/>
</g>
<!-- quipper&#45;tools&#45;&gt;quipper&#45;utils -->
<g id="edge22" class="edge">
<title>quipper&#45;tools&#45;&gt;quipper&#45;utils</title>
<path fill="none" stroke="black" d="M335.57,-287.93C304.45,-247.58 235.43,-144.32 280.5,-72 291.03,-55.1 308.7,-43.44 326.73,-35.45"/>
<polygon fill="black" stroke="black" points="327.79,-38.39 335.74,-31.39 325.16,-31.91 327.79,-38.39"/>
</g>
<!-- quipper&#45;tools&#45;&gt;quipper&#45;cabal -->
<g id="edge23" class="edge">
<title>quipper&#45;tools&#45;&gt;quipper&#45;cabal</title>
<path fill="none" stroke="black" d="M349.92,-287.66C351,-268.99 354.65,-238.91 366.5,-216 371.97,-205.43 380.22,-195.53 388.5,-187.21"/>
<polygon fill="black" stroke="black" points="390.51,-190.18 395.35,-180.76 385.69,-185.1 390.51,-190.18"/>
</g>
<!-- quipper&#45;algorithms -->
<g id="node5" class="node">
<title>quipper&#45;algorithms</title>
<ellipse fill="none" stroke="black" cx="107.5" cy="-306" rx="107.5" ry="18"/>
<text text-anchor="middle" x="107.5" y="-301.32" font-family="Times,serif" font-size="14.00">quipper&#45;algorithms</text>
</g>
<!-- quipper&#45;algorithms&#45;&gt;quipper&#45;language -->
<g id="edge4" class="edge">
<title>quipper&#45;algorithms&#45;&gt;quipper&#45;language</title>
<path fill="none" stroke="black" d="M119.02,-287.79C141.72,-255.13 195.48,-183.88 257.5,-144 279.43,-129.9 305.73,-118.37 328.99,-109.71"/>
<polygon fill="black" stroke="black" points="329.88,-112.75 338.09,-106.06 327.5,-106.17 329.88,-112.75"/>
</g>
<!-- quipper&#45;algorithms&#45;&gt;quipper&#45;libraries -->
<g id="edge5" class="edge">
<title>quipper&#45;algorithms&#45;&gt;quipper&#45;libraries</title>
<path fill="none" stroke="black" d="M176.21,-291.75C238.61,-279.72 330.48,-262 394.94,-249.57"/>
<polygon fill="black" stroke="black" points="395.28,-252.88 404.44,-247.55 393.95,-246 395.28,-252.88"/>
</g>
<!-- quipper&#45;algorithms&#45;&gt;quipper&#45;utils -->
<g id="edge6" class="edge">
<title>quipper&#45;algorithms&#45;&gt;quipper&#45;utils</title>
<path fill="none" stroke="black" d="M112.78,-287.53C118.77,-269.02 129.54,-239.31 143.5,-216 186.3,-144.53 196.61,-121.65 263.5,-72 284.02,-56.77 309.57,-44.94 332.22,-36.35"/>
<polygon fill="black" stroke="black" points="333.2,-39.35 341.39,-32.64 330.8,-32.78 333.2,-39.35"/>
</g>
<!-- quipper&#45;algorithms&#45;&gt;quipper&#45;cabal -->
<g id="edge7" class="edge">
<title>quipper&#45;algorithms&#45;&gt;quipper&#45;cabal</title>
<path fill="none" stroke="black" d="M143.37,-288.57C200.43,-262.43 311.76,-211.44 373.54,-183.14"/>
<polygon fill="black" stroke="black" points="374.74,-185.98 382.38,-178.63 371.83,-179.61 374.74,-185.98"/>
</g>
<!-- quipper&#45;cabal&#45;&gt;quipper&#45;language -->
<g id="edge11" class="edge">
<title>quipper&#45;cabal&#45;&gt;quipper&#45;language</title>
<path fill="none" stroke="black" d="M410.33,-143.7C407.14,-135.98 403.3,-126.71 399.73,-118.11"/>
<polygon fill="black" stroke="black" points="402.65,-117 395.59,-109.1 396.18,-119.68 402.65,-117"/>
</g>
<!-- quipper&#45;all -->
<g id="node8" class="node">
<title>quipper&#45;all</title>
<ellipse fill="none" stroke="black" cx="349.5" cy="-450" rx="65.41" ry="18"/>
<text text-anchor="middle" x="349.5" y="-445.32" font-family="Times,serif" font-size="14.00">quipper&#45;all</text>
</g>
<!-- quipper&#45;all&#45;&gt;quipper -->
<g id="edge8" class="edge">
<title>quipper&#45;all&#45;&gt;quipper</title>
<path fill="none" stroke="black" d="M349.5,-431.7C349.5,-424.24 349.5,-415.32 349.5,-406.97"/>
<polygon fill="black" stroke="black" points="353,-407.1 349.5,-397.1 346,-407.1 353,-407.1"/>
</g>
<!-- quipper&#45;all&#45;&gt;quipper&#45;algorithms -->
<g id="edge9" class="edge">
<title>quipper&#45;all&#45;&gt;quipper&#45;algorithms</title>
<path fill="none" stroke="black" d="M322.68,-433.26C279.53,-407.94 194.57,-358.09 145.3,-329.18"/>
<polygon fill="black" stroke="black" points="147.34,-325.73 136.94,-323.69 143.79,-331.77 147.34,-325.73"/>
</g>
<!-- quipper&#45;demos -->
<g id="node9" class="node">
<title>quipper&#45;demos</title>
<ellipse fill="none" stroke="black" cx="593.5" cy="-306" rx="85.93" ry="18"/>
<text text-anchor="middle" x="593.5" y="-301.32" font-family="Times,serif" font-size="14.00">quipper&#45;demos</text>
</g>
<!-- quipper&#45;all&#45;&gt;quipper&#45;demos -->
<g id="edge10" class="edge">
<title>quipper&#45;all&#45;&gt;quipper&#45;demos</title>
<path fill="none" stroke="black" d="M376.55,-433.26C420.17,-407.87 506.17,-357.82 555.79,-328.95"/>
<polygon fill="black" stroke="black" points="557.33,-331.52 564.21,-323.47 553.8,-325.47 557.33,-331.52"/>
</g>
<!-- quipper&#45;demos&#45;&gt;quipper&#45;language -->
<g id="edge12" class="edge">
<title>quipper&#45;demos&#45;&gt;quipper&#45;language</title>
<path fill="none" stroke="black" d="M598.21,-287.83C602.36,-269.31 606.36,-239.36 596.5,-216 572.35,-158.81 507.09,-126.04 456.05,-108.53"/>
<polygon fill="black" stroke="black" points="457.31,-104.93 446.72,-105.13 455.12,-111.58 457.31,-104.93"/>
</g>
<!-- quipper&#45;demos&#45;&gt;quipper&#45;libraries -->
<g id="edge13" class="edge">
<title>quipper&#45;demos&#45;&gt;quipper&#45;libraries</title>
<path fill="none" stroke="black" d="M564.66,-288.59C547.98,-279.09 526.77,-267.02 508.7,-256.74"/>
<polygon fill="black" stroke="black" points="511.01,-253.46 500.59,-251.55 507.55,-259.54 511.01,-253.46"/>
</g>
<!-- quipper&#45;demos&#45;&gt;quipper&#45;utils -->
<g id="edge14" class="edge">
<title>quipper&#45;demos&#45;&gt;quipper&#45;utils</title>
<path fill="none" stroke="black" d="M602.47,-287.79C610.69,-269.75 620.57,-240.66 613.5,-216 592.7,-143.45 581.56,-120.22 523.5,-72 502.83,-54.83 475.92,-42.76 451.57,-34.53"/>
<polygon fill="black" stroke="black" points="452.91,-30.96 442.32,-31.23 450.77,-37.62 452.91,-30.96"/>
</g>
<!-- quipper&#45;demos&#45;&gt;quipper&#45;cabal -->
<g id="edge15" class="edge">
<title>quipper&#45;demos&#45;&gt;quipper&#45;cabal</title>
<path fill="none" stroke="black" d="M594.57,-287.71C594.82,-267.95 592.16,-235.82 574.5,-216 554.9,-194 525.86,-181.12 498.06,-173.59"/>
<polygon fill="black" stroke="black" points="499.04,-169.97 488.49,-170.95 497.35,-176.77 499.04,-169.97"/>
</g>
</g>
</svg>
